 <svg display="none" xmlns="http://www.w3.org/2000/svg">
  <symbol id="gorilla-icon" >
			<g>
				<path d="M19.4763 8.25639C19.4763 8.25639 21.0197 6.76789 22.4035 6.27172C22.4035 6.27172 19.1569 1.84755 12.2912 0.400391C12.2912 0.400391 9.94935 1.8062 9.52357 4.57648C9.52357 4.57648 7.71399 4.9486 7.71399 5.89959L9.89613 6.72654C9.89613 6.72654 14.0475 6.10633 14.5798 6.23037C15.112 6.35441 14.7394 7.84292 14.2604 8.091C14.2604 8.091 14.4201 8.58717 14.7394 8.79391C14.7394 8.79391 13.675 10.4892 10.9074 9.57951C10.9074 9.57951 12.4508 12.143 8.56556 12.8046C8.56556 12.8046 6.3302 12.3084 6.01086 9.99298C6.01086 9.99298 8.61878 10.1584 8.8849 10.4478C8.8849 10.4478 9.47035 10.117 7.34143 9.82759C7.34143 9.82759 7.02209 9.57951 8.193 8.79391L7.39465 8.75256L7.18176 7.01597C7.18176 7.01597 2.28526 7.88427 1.06113 10.8199C1.06113 10.8199 -1.65324 16.898 4.36095 30.0465C4.36095 30.0465 8.35267 30.6667 11.0138 29.9224C11.0138 29.9224 11.1735 28.0204 10.8009 27.7724L9.04457 26.9868C9.04457 26.9868 12.5041 22.2732 11.4396 21.4049C11.4396 21.4049 10.4284 20.6606 10.1622 20.2058C10.1622 20.2058 11.6525 20.7846 12.2379 20.7846C12.2379 20.7846 12.9298 18.6346 14.2604 17.1047C14.2604 17.1047 11.067 27.4416 12.3976 30.2945C12.3976 30.2945 21.3391 32.2792 20.8601 29.3436C20.8601 29.3436 20.9133 28.2685 19.5295 27.3589C19.5295 27.3589 21.9777 25.2088 22.0842 24.9194C22.0842 24.9194 24.1067 24.0511 22.6164 20.4952C21.1262 16.9393 22.5632 20.4125 22.5632 20.4125C22.5632 20.4125 32.7288 13.1767 26.1823 7.47079C26.1823 7.47079 23.5744 5.07264 19.4763 8.25639Z" />
			<path d="M13.8564 6.93346H12.4427H8.69069L7.71191 6.51025C7.71191 6.51025 8.14692 7.99147 8.36443 8.09727C8.36443 8.09727 9.56071 8.15017 10.2132 7.72696C10.2132 7.72696 11.4639 8.67917 11.8445 8.73207C11.8445 8.73207 13.6933 7.93856 13.8564 6.93346Z" />
			<path d="M9.91432 8.17627L9.47139 8.88321C9.47139 8.88321 9.10229 9.28718 9.91432 9.28718H10.5049V8.37825C10.5049 8.37825 10.2096 8.17627 10.062 8.17627" />
			<path d="M9.3877 8.17627L8.9089 8.73172L8.27051 8.66229C8.27051 8.66229 8.7493 8.21099 9.3877 8.17627Z" />
			<path d="M28.6698 14.8607C28.6698 14.8607 26.2905 18.711 23.9111 20.3432L24.2813 22.7705C24.2813 22.7705 25.4974 22.5194 25.6031 22.6031C25.7089 22.6868 28.9871 27.7926 28.9342 28.0855C28.9342 28.0855 27.8238 28.4622 27.8238 28.7551L27.7181 29.634C27.7181 29.634 33.5871 30.0943 35.2791 29.634C35.2791 29.634 37.0768 28.0437 35.6492 24.6119C35.6492 24.6119 33.1113 22.352 33.0584 21.5987C33.0584 21.5987 32.5825 20.3013 33.3756 18.711C33.4285 18.6273 34.6446 14.5259 28.6698 14.8607Z" />
			<path d="M24.0323 23.8164C24.0323 23.8164 24.0892 25.144 20.5596 27.2916C20.5596 27.2916 22.1536 28.8145 21.812 29.2831L23.406 29.1269C23.406 29.1269 24.4877 26.784 24.4877 26.5497C24.4877 26.5497 23.6907 26.0421 23.5768 25.7688C23.5768 25.7688 26.4233 24.5973 25.3416 23.8164C25.057 23.6992 24.0323 23.6992 24.0323 23.8164Z" />

    </g>
  </symbol>
  <symbol id="alligator-icon" >
    <g>
     		<path d="M12.9403 12.2307C12.8323 12.0743 12.7145 11.9011 12.6305 11.7744C12.6237 11.7644 12.6153 11.756 12.6059 11.7499C12.5964 11.7438 12.586 11.74 12.5752 11.7388C12.1567 11.6893 11.135 11.5656 10.4215 11.4795C10.4103 11.4783 10.3991 11.4798 10.3884 11.484C10.3778 11.4882 10.368 11.4949 10.3596 11.5038C10.3512 11.5127 10.3443 11.5236 10.3396 11.5357C10.3348 11.5479 10.3321 11.5611 10.3317 11.5745C10.3251 11.7843 10.33 12.006 10.3374 12.1367C10.0652 12.3881 9.82271 12.6827 9.6165 13.0125C9.54455 13.1219 9.49969 13.2534 9.48706 13.3919C9.47444 13.5305 9.49455 13.6705 9.54511 13.796C9.59566 13.9215 9.67461 14.0273 9.77292 14.1014C9.87123 14.1755 9.98492 14.2148 10.101 14.2149H11.3937C11.4975 14.215 11.6 14.1873 11.6938 14.1339C11.7875 14.0805 11.8702 14.0027 11.9359 13.9061L12.9419 12.3554C12.9535 12.3374 12.9596 12.3153 12.9593 12.2927C12.959 12.27 12.9523 12.2481 12.9403 12.2307ZM40.2331 7.17951C39.1282 5.94542 37.4523 4.84295 35.1082 3.80679C30.6639 1.84334 20.1225 0.317301 19.6759 0.252974C19.6313 0.24685 19.5861 0.250201 19.5424 0.262871L15.885 1.36138H10.5286C9.48797 1.36138 7.73628 1.83443 7.25758 3.09128C5.92363 3.94732 4.34085 4.9815 3.92476 5.25366C3.49549 5.20022 2.08821 5.10026 0.851487 5.86328C0.644861 5.99071 0.473501 6.18749 0.358236 6.4297C0.242971 6.67191 0.188765 6.94912 0.202204 7.22764C0.215644 7.50616 0.296152 7.774 0.433943 7.99859C0.571733 8.22318 0.760873 8.39487 0.978373 8.49277C0.986984 8.49699 0.995787 8.50062 1.00474 8.50366C1.15058 8.55413 4.58556 9.75061 5.81322 9.94656C6.17245 10.004 6.56135 10.0703 6.98321 10.1415C7.73134 10.2682 8.56433 10.4087 9.49703 10.5483C9.49681 10.5483 9.4966 10.5482 9.49645 10.548C9.49629 10.5478 9.49621 10.5475 9.49621 10.5473L12.9724 10.9768C12.9724 10.9768 13.7139 12.1188 13.8276 12.2693C13.6335 12.542 13.4792 12.8521 13.3712 13.1867C13.332 13.2995 13.3165 13.4221 13.3263 13.5438C13.336 13.6655 13.3707 13.7824 13.4271 13.8841C13.4835 13.9859 13.56 14.0693 13.6497 14.127C13.7394 14.1847 13.8396 14.2149 13.9413 14.2149H15.2827C15.3878 14.2152 15.4916 14.187 15.5863 14.1323C15.6811 14.0776 15.7643 13.998 15.8298 13.8992L16.8226 12.4108C16.9169 12.2697 16.9706 12.0958 16.9759 11.915C16.9795 11.7826 16.9799 11.5903 16.9676 11.3481C16.967 11.3345 16.9687 11.3209 16.9726 11.3081C16.9766 11.2954 16.9827 11.2837 16.9905 11.2739C16.9984 11.2641 17.0078 11.2564 17.0183 11.2511C17.0288 11.2459 17.04 11.2434 17.0514 11.2436C18.0092 11.2671 21.7222 11.2505 22.9843 11.1941C23.0035 11.1931 23.0225 11.2003 23.0378 11.2144C23.0531 11.2285 23.0638 11.2486 23.068 11.2712C23.1126 11.4858 23.1245 11.7084 23.103 11.9281C22.6999 12.2046 22.3573 12.5924 22.1036 13.0593C22.0411 13.171 22.0051 13.301 21.9995 13.4354C21.9938 13.5698 22.0187 13.7036 22.0714 13.8223C22.1241 13.941 22.2027 14.0403 22.2988 14.1095C22.3949 14.1787 22.5048 14.2153 22.6169 14.2152H24.463C24.5892 14.2153 24.7131 14.1743 24.8214 14.0964C25.1427 13.7699 25.9632 12.9443 26.1198 12.7866C26.1371 12.7692 26.1511 12.7475 26.161 12.7231L26.9974 10.6908L27.1416 10.6749C27.3838 10.6482 27.8331 10.6029 28.4038 10.5819C30.2552 10.5139 33.7495 9.97328 35.0373 9.73181C35.5622 9.63284 36.3804 10.0564 36.8245 10.6561C36.9604 10.8402 37.1771 11.2024 37.0955 11.5567C36.7956 12.8512 35.4221 14.0556 33.228 14.9492C30.5189 16.0527 22.053 16.4307 18.5389 16.5416C18.3388 16.548 18.1468 16.6373 17.9953 16.7944C17.8438 16.9514 17.7421 17.1665 17.7075 17.4032C17.6729 17.6399 17.7075 17.8838 17.8054 18.0934C17.9033 18.303 18.0585 18.4656 18.2447 18.5535C19.7476 19.2621 22.3405 19.75 25.6214 19.75C28.3775 19.75 31.6197 19.4056 35.1074 18.5585C39.7058 17.4421 41.8002 13.8873 41.8002 11.0569C41.8002 9.64571 41.2729 8.34136 40.2331 7.17951ZM8.16885 4.13932C8.25945 4.13932 8.34802 4.17159 8.42336 4.23205C8.49869 4.29251 8.55741 4.37845 8.59208 4.47899C8.62676 4.57954 8.63583 4.69017 8.61815 4.79691C8.60048 4.90364 8.55685 5.00169 8.49278 5.07864C8.42871 5.15559 8.34708 5.208 8.25822 5.22923C8.16936 5.25046 8.07724 5.23956 7.99354 5.19792C7.90983 5.15627 7.83828 5.08575 7.78794 4.99526C7.73761 4.90477 7.71074 4.79839 7.71074 4.68956C7.71076 4.54363 7.75903 4.40369 7.84494 4.30051C7.93085 4.19732 8.04736 4.13934 8.16885 4.13932ZM7.0862 9.25975C6.66352 9.1875 6.27215 9.12119 5.91127 9.0638C5.04778 8.92624 2.93192 8.2315 1.85833 7.86929C2.21675 7.91877 2.49524 7.92966 2.50265 7.92966C2.71852 7.92966 3.24749 7.94649 3.85967 7.96628C4.38534 7.98211 4.96704 8.00091 5.51248 8.01477L5.97306 8.68575C5.98404 8.70169 5.9981 8.71416 6.01401 8.72208C6.02992 8.72999 6.04721 8.73311 6.06435 8.73116C6.0815 8.72921 6.09799 8.72224 6.11238 8.71088C6.12677 8.69951 6.13862 8.68409 6.14691 8.66596L6.43364 8.03259C6.59184 8.03358 6.73932 8.03456 6.87362 8.03456L7.24934 8.6719C7.25926 8.68883 7.2725 8.70257 7.28788 8.71194C7.30326 8.7213 7.32031 8.726 7.33755 8.7256C7.35479 8.72521 7.37168 8.71975 7.38676 8.7097C7.40183 8.69964 7.41462 8.68531 7.42401 8.66794L7.78654 7.99102C9.17899 7.87622 11.411 7.70204 12.6494 10.0515C10.3828 9.81791 8.56846 9.51112 7.0862 9.25975ZM26.5566 13.2886C26.5297 13.415 26.5311 13.5477 26.5605 13.6733C26.5899 13.7988 26.6464 13.9129 26.7242 14.0039C26.846 14.1426 27.0082 14.2183 27.176 14.2149H28.9435C29.0486 14.2153 29.1525 14.1871 29.2472 14.1325C29.342 14.0778 29.4252 13.998 29.4906 13.8992L30.598 12.2366C30.6643 12.1375 30.711 12.0216 30.7345 11.8976C30.7581 11.7737 30.7579 11.6449 30.7339 11.5211L30.7015 11.2011C30.699 11.176 30.6886 11.1529 30.6724 11.1368C30.6561 11.1206 30.6353 11.1126 30.6143 11.1144C29.8661 11.1801 27.8894 11.3092 27.4323 11.3432C27.4121 11.3446 27.393 11.3549 27.3788 11.3722C27.3646 11.3894 27.3562 11.4124 27.3552 11.4367C27.3442 11.6094 27.3436 11.7828 27.3533 11.9555C27.154 12.1039 26.9811 12.298 26.8444 12.5267C26.7076 12.7555 26.6099 13.0144 26.5566 13.2886Z" />


    </g>
  </symbol>
  <symbol id="panda-icon" >
    <g>
     <path d="M35.0874 20.8466C36.6108 17.9606 37.8499 14.4216 37.8499 10.6498C37.8499 8.75525 37.2458 6.60159 36.2339 4.88892C35.3491 3.39131 33.7083 1.45644 30.9144 0.743078C27.3787 -0.159609 23.7964 0.682204 20.9179 1.3587C19.8776 1.60315 18.895 1.83404 18.0533 1.94823C16.1659 2.20407 14.1718 2.16659 12.4576 2.10172H12.4564C12.1882 2.09154 11.9262 2.08076 11.6733 2.07032C10.5903 2.02554 8.096 1.98258 8.096 1.98258C7.95989 1.41575 7.64959 0.951358 7.26225 0.736991C7.09816 0.647683 6.91901 0.602413 6.73796 0.604504C6.55692 0.606596 6.37857 0.655997 6.21602 0.749079C5.68326 1.03076 5.42779 1.65664 5.54856 2.36322C4.69492 2.79247 3.86094 3.64689 3.35515 4.31878C2.92088 4.89561 2.55261 5.80639 2.19635 6.68716C1.8336 7.58419 1.45855 8.51175 1.08321 8.8863C0.991333 8.97723 0.910078 9.08184 0.841528 9.19746C0.840336 9.19746 0.839144 9.19668 0.837878 9.19642C0.759391 9.17797 0.678469 9.17887 0.600299 9.19907C0.522129 9.21926 0.448438 9.2583 0.383951 9.31369C0.319465 9.36907 0.265606 9.43958 0.22583 9.52069C0.186053 9.60179 0.161237 9.6917 0.152972 9.78466C0.144707 9.87761 0.153176 9.97155 0.177837 10.0605C0.202497 10.1494 0.242804 10.2313 0.296172 10.301C0.34954 10.3706 0.414792 10.4265 0.487743 10.465C0.560694 10.5035 0.639733 10.5238 0.719792 10.5245C0.787562 10.771 0.879091 11.0076 0.992618 11.23C1.74792 12.7476 2.94271 13.6911 3.99683 14.5233C4.57795 14.9821 5.12673 15.4156 5.55191 15.8996C5.87089 16.2754 6.14836 16.6964 6.37784 17.1526C6.38037 17.1584 6.38372 17.1634 6.38648 17.169C6.81807 18.012 7.16041 19.0404 7.22433 20.0227C7.30516 21.2636 7.49641 24.6144 7.55653 25.6728C7.34884 25.7499 7.154 25.868 6.98048 26.022C6.85139 26.1359 6.75668 26.2948 6.71004 26.4757C6.66339 26.6566 6.66723 26.8501 6.72099 27.0283C6.77204 27.2102 6.8713 27.3684 7.00443 27.4801C7.13757 27.5917 7.29768 27.6511 7.46162 27.6496H10.992C11.1057 27.6497 11.2181 27.6208 11.3212 27.5648C11.4243 27.5088 11.5157 27.4271 11.5888 27.3254C12.3696 26.2417 14.3171 23.4487 15.5496 20.9146C20.3209 20.9092 23.5794 20.7071 25.4802 20.2972C25.7633 22.3865 26.1372 24.7672 26.2739 25.6257C26.1559 25.6902 26.0443 25.7695 25.9411 25.8622C25.7999 25.9893 25.6963 26.1648 25.6449 26.3641C25.5934 26.5634 25.5966 26.7766 25.6541 26.9736C25.7116 27.1706 25.8205 27.3418 25.9655 27.4629C26.1105 27.5841 26.2843 27.6493 26.4627 27.6494H29.7717C29.9675 27.6492 30.1573 27.5707 30.3095 27.427C31.4008 26.3937 33.3976 24.0334 35.0627 20.8937C35.0719 20.8787 35.0802 20.8629 35.0874 20.8466ZM11.7675 10.9163C10.7001 13.5273 8.82128 15.6394 6.81986 16.5009C6.59006 16.0812 6.32204 15.6918 6.02045 15.3395C5.55228 14.8065 4.97936 14.3542 4.37277 13.8752C3.32974 13.0514 2.25088 12.1997 1.57262 10.8368C1.15973 10.0073 1.31394 9.68603 1.51912 9.48131C2.00383 8.99762 2.39199 8.03771 2.80301 7.02127C3.13932 6.18946 3.48709 5.32939 3.85908 4.83552C4.30922 4.23747 5.10974 3.41044 5.88441 3.0478C5.96051 3.01205 6.02894 2.95718 6.08482 2.88709C6.50829 3.60959 7.5169 3.50306 7.77006 2.84517C7.78772 2.79791 7.80081 2.7485 7.8091 2.69786C8.87514 2.8597 10.5738 2.80787 11.6497 2.85257C11.832 2.86013 12.0201 2.86778 12.2105 2.87526C12.9951 5.44705 12.8404 8.29199 11.7675 10.9163ZM32.3405 18.085C31.7155 17.9494 28.6133 17.4018 26.0116 19.1818C25.8878 18.2002 25.8034 17.3838 25.8034 16.9848C25.8034 16.881 25.7681 16.7815 25.7052 16.7081C25.6423 16.6347 25.557 16.5935 25.4681 16.5935C25.3792 16.5935 25.2939 16.6347 25.2311 16.7081C25.1682 16.7815 25.1329 16.881 25.1329 16.9848C25.1329 17.4482 25.2342 18.4031 25.3778 19.5235C23.7544 19.8775 21.0775 20.0745 17.2404 20.1213C18.0042 19.5798 18.6134 18.8026 19.0582 17.7918C19.6777 16.385 19.9515 14.552 19.85 12.4911C19.7357 10.1691 18.2071 7.04154 16.9788 4.5288C16.6943 3.94692 16.4219 3.38957 16.195 2.89631C16.841 2.86544 17.4906 2.81239 18.1304 2.7256C18.9997 2.60785 19.9956 2.37374 21.0499 2.12555C23.8669 1.46349 27.3726 0.639505 30.7708 1.50732C35.4395 2.69977 37.1794 7.74795 37.1794 10.6498C37.1794 13.9898 36.1627 17.1461 34.8508 19.7979C34.4656 19.1255 33.6629 18.3722 32.3405 18.085Z"/>
		<path d="M4.63073 6.32674C3.07781 5.72625 2.17459 7.41269 3.16288 8.40307C3.70332 8.94436 4.21707 10.1986 5.39135 10.0946C7.25702 9.92966 7.08521 7.27483 4.63073 6.32674ZM3.92725 7.95846C3.83516 7.95846 3.74513 7.93077 3.66856 7.87888C3.59199 7.827 3.53231 7.75325 3.49707 7.66697C3.46183 7.58069 3.4526 7.48575 3.47057 7.39415C3.48854 7.30256 3.53288 7.21842 3.598 7.15239C3.66312 7.08635 3.74609 7.04138 3.83641 7.02316C3.92673 7.00494 4.02035 7.01429 4.10544 7.05003C4.19052 7.08577 4.26324 7.14629 4.3144 7.22394C4.36557 7.30159 4.39287 7.39288 4.39287 7.48627C4.39285 7.6115 4.34379 7.73159 4.25647 7.82013C4.16915 7.90868 4.05073 7.95844 3.92725 7.95846Z" />
		<path d="M19.1645 21.2222C19.1604 21.2015 19.1507 21.1832 19.1371 21.1702C19.1235 21.1571 19.1067 21.1502 19.0895 21.1504C18.722 21.1552 16.7766 21.1803 15.9518 21.1844C15.9391 21.1844 15.9266 21.1883 15.9155 21.196C15.9045 21.2036 15.8951 21.2146 15.8885 21.2279C15.3583 22.2698 14.4283 23.8911 13.8141 24.9465C13.804 24.9639 13.799 24.985 13.7999 25.0064C13.8009 25.0278 13.8077 25.0481 13.8193 25.064L14.6776 26.2533L14.6684 26.2703C14.6654 26.2769 14.6616 26.2836 14.6585 26.2902C14.5916 26.4258 14.555 26.581 14.5527 26.7399C14.5504 26.8988 14.5823 27.0556 14.6453 27.1941C14.7082 27.3327 14.7999 27.448 14.9108 27.5282C15.0218 27.6084 15.148 27.6506 15.2765 27.6504H18.9262C19.0227 27.6503 19.1183 27.6264 19.2072 27.58C19.2962 27.5336 19.3767 27.4657 19.4441 27.3802C19.5115 27.2947 19.5644 27.1935 19.5997 27.0824C19.635 26.9712 19.652 26.8525 19.6496 26.7332C19.6374 26.1182 19.6053 25.1529 19.5258 24.1053C19.4601 23.135 19.3393 22.1716 19.1645 21.2222Z"/>
		<path d="M36.8541 18.6071C36.8492 18.5906 36.8401 18.5763 36.828 18.566C36.8159 18.5556 36.8014 18.5499 36.7865 18.5494C36.7715 18.5488 36.7567 18.5537 36.7442 18.5631C36.7316 18.5726 36.7218 18.5863 36.716 18.6025C36.6169 18.8835 36.5057 19.1585 36.3828 19.4265C35.3551 21.6708 34.1088 23.7695 32.6685 25.681C32.6562 25.6971 32.6496 25.7179 32.6499 25.7394C32.6502 25.7609 32.6575 25.7815 32.6703 25.797L32.9193 26.1031C32.8461 26.2041 32.7847 26.3159 32.7367 26.4356C32.6852 26.5679 32.6631 26.7133 32.6727 26.8581C32.6823 27.003 32.7231 27.1427 32.7914 27.2643C32.8522 27.3799 32.937 27.4758 33.0381 27.5431C33.1391 27.6104 33.253 27.6469 33.3694 27.6493H37.1498C37.2431 27.6493 37.3355 27.6275 37.4215 27.5852C37.5075 27.543 37.5854 27.4811 37.6506 27.4032C37.7159 27.3254 37.7671 27.2332 37.8012 27.1319C37.8354 27.0307 37.8519 26.9225 37.8497 26.8138C37.8123 25.0633 37.6387 21.1841 36.8541 18.6071Z"/>
    </g>
  </symbol>
 
  <symbol id="eagle-icon" >
    <g>
		
      <path d="M13.4534 18.9391L16.1332 9.10699L22.9952 4.6532H24.3893L31.3584 0.451172V1.79566L24.8649 5.57738L33.1808 2.29989L36.1826 2.38417L34.1457 4.31681L25.6754 7.00579L35.4323 5.24135L39.0774 5.32527L35.861 6.66976L27.1766 8.18245L36.1826 8.01461L40.1499 8.93879L36.1826 10.1994L28.0345 9.69513L34.5744 11.04L36.3972 12.5527L33.8241 12.8048L28.6778 11.2917L33.7166 13.729L34.5744 15.3259L29.6427 15.578L30.9293 16.4944L31.3584 18.1831L29.7498 18.9391L30.286 20.3679L28.9994 20.9564L29.1065 21.9648H26.8012V23.0576H24.8649L25.5684 23.8978L22.674 23.5618L25.5684 24.9898L27.8203 26.2508L36.1826 26.8389L37.3622 28.0152L36.1826 28.688L30.286 27.2596L36.8259 29.3604L37.7909 30.2846H35.1102L30.286 28.688L36.0756 30.8728L36.8259 31.8819L35.1102 32.3012L26.3192 29.0244L23.6385 28.8562L25.4613 31.377L23.746 30.957L24.8649 32.3012L18.9213 31.8819L16.7769 30.5367L16.4552 29.0244L14.8466 25.578L8.9499 22.4683L10.4565 22.4923L8.9499 21.3717L11.0292 21.2599L9.59957 20.6435L10.9577 20.4754L9.74262 19.8029L11.3864 19.4108L10.0283 18.4581L13.4534 18.9391Z" />
			<path d="M13.5 17.4366L6.19969 15.5769L5.24993 13.4512L3.75 14.9698V16.1081L8.14988 17.9301L13.1993 18.6512L13.5 17.4366Z" />
			<path d="M20 33.1113L18.6236 33.9122V34.6413L18.8523 35.1873L17.7056 34.7865V33.8401L16.9598 34.7503L17.3612 35.5512L16.1 34.5316L17.4764 33.1113L18.4509 32.9512L20 33.1113Z" />
			<path d="M16.75 32.9512L15.761 33.3609L15.45 34.2147L16.1235 34.9012L15.761 34.2196L16.75 32.9512Z" />
			<path d="M16.75 32.3005L15.3078 33.2005L15.0235 33.7293L14.5365 33.8713L15.1358 32.8406L14.1193 33.2078L13.8556 34.2509L13.5103 33.7218L14.0995 32.6408L13.3274 33.1624L13.2466 33.9788L12.85 33.2757L13.7946 32.1797H15.5417L16.0804 31.6509L16.75 32.3005Z"/>
			<path d="M0.877419 20.2495L1.72956 19.5642H3.10166L3.14963 19.1834L4.56971 18.6509H8.80006L10.25 19.6024L7.97779 19.8312L10.0133 20.6009L7.78863 20.9341L9.87168 21.5048H7.97779L9.30374 22.5509H7.95516L2.70071 21.2385H1.35168L0.5 21.6379L0.877419 20.2495ZM4.38054 20.0556C4.57514 20.0556 4.73262 19.9287 4.73262 19.7726C4.73262 19.6159 4.57468 19.4893 4.38054 19.4893C4.1855 19.4893 4.02756 19.6162 4.02756 19.7726C4.02756 19.9287 4.18595 20.0556 4.38054 20.0556Z"/>
    </g>
  </symbol>
  <symbol id="sloth-icon" >
    <g>

<path d="M33.8681 13.5285C33.8154 12.0491 32.1244 10.4638 31.3849 9.61852C30.6454 8.7732 29.166 8.40345 27.8451 8.40345C26.5242 8.40345 25.8374 9.51312 25.8374 9.51312C25.8374 9.51312 27.7397 9.03755 28.2679 9.19607C28.7962 9.35459 31.438 11.1511 32.495 13.1061C33.5515 15.0611 32.3891 16.4346 31.8609 17.4385C31.3326 18.4423 29.1133 18.7067 27.2641 18.5482C25.4149 18.3896 24.4111 17.4385 23.9882 16.5932C23.5653 15.7478 23.6185 14.2157 23.6185 14.2157L18.8631 17.7555C19.286 18.495 20.9767 19.1291 22.2444 19.235C23.5126 19.3408 25.2033 20.0803 25.6788 20.3973C26.1544 20.7144 25.3618 21.1368 25.3618 21.1368C23.7238 20.1857 20.0255 19.0764 19.2856 19.0764C18.5461 19.0764 15.0586 14.8494 14.1078 13.4758C13.1567 12.1022 13.5796 10.9925 13.5796 10.0414C13.5796 9.09025 14.9005 6.34305 14.9005 6.34305C14.9005 6.34305 14.6361 5.02216 12.8401 6.44888C11.384 7.6053 9.92839 10.1158 9.25987 13.3887C9.92882 12.7635 10.5153 12.208 10.5153 12.208L9.13917 14.0525C9.04567 14.6165 8.97342 15.1992 8.93007 15.8006C8.89735 16.2583 8.8829 16.6858 8.88247 17.0891L10.0393 16.1703L8.88715 17.4869C8.92497 19.028 9.18805 20.1738 9.52252 21.1033L10.4091 19.7101L9.86847 21.955C10.1481 22.5746 10.4397 23.1029 10.673 23.6197C11.0874 24.5368 12.0649 25.6694 12.9378 26.5811L14.3186 25.4157L13.642 27.2955C14.0211 27.6708 14.3293 27.9623 14.4772 28.1106C15.0054 28.6389 14.2659 28.9033 14.2659 28.9033C11.8354 27.9525 8.82382 22.088 8.82382 22.088C8.82382 22.088 6.12933 22.2992 4.86113 20.3973C3.59294 18.4955 4.49139 16.1176 5.17818 14.744C5.86498 13.3704 5.17818 13.7402 5.17818 13.7402C5.17818 13.7402 3.90999 13.9514 3.54024 14.1099C3.17049 14.2684 0.951147 16.9102 0.634098 17.2273C0.317049 17.5443 0.264349 18.0726 0.264349 18.0726L1.16237 17.28C1.16237 17.28 0.898022 18.0726 0.528273 18.7594C0.158524 19.4462 0 20.8198 0 20.8198L0.792622 19.7101V23.0914C0.528273 24.6766 0.792622 25.2049 0.792622 25.2049L1.3209 22.8802C1.3209 22.8802 1.3209 24.6766 1.3209 25.2576C1.3209 25.8386 2.69449 28.5335 4.01539 30.7524C5.33628 32.9713 13.9485 33.2357 15.7449 33.0245C17.5201 32.8158 22.9572 29.6147 25.7366 27.0915L23.1952 27.4765L26.7889 25.9946C27.2739 25.4195 27.7299 24.7846 28.1472 24.1407L26.1009 24.9933C26.1757 24.9435 27.3151 24.2733 28.5008 23.578C29.8366 21.394 30.6972 19.2872 30.6972 19.2872C30.6972 19.2872 32.7049 18.1776 33.4975 17.0152C34.2906 15.8532 33.9208 15.0079 33.8681 13.5285Z"/>
<path d="M26.7881 11.5205C27.0508 11.5205 27.2637 11.3076 27.2637 11.0449C27.2637 10.7823 27.0508 10.5693 26.7881 10.5693C26.5254 10.5693 26.3125 10.7823 26.3125 11.0449C26.3125 11.3076 26.5254 11.5205 26.7881 11.5205Z" />
<path d="M30.4863 15.2187C30.7781 15.2187 31.0146 14.9822 31.0146 14.6904C31.0146 14.3986 30.7781 14.1621 30.4863 14.1621C30.1945 14.1621 29.958 14.3986 29.958 14.6904C29.958 14.9822 30.1945 15.2187 30.4863 15.2187Z" />
<path d="M26.7889 17.8612C27.4758 17.9139 30.065 17.8085 30.8046 17.4383C31.5441 17.0685 32.4953 15.9588 32.2841 14.9549C32.0729 13.951 31.4914 11.8373 30.1704 10.9919C28.8495 10.1465 27.8455 9.72363 27.3172 9.72363C26.7889 9.72363 25.8904 9.67092 25.4679 10.1992C25.4679 10.1992 24.8865 10.569 24.6225 12.1544C24.3582 13.7397 24.0411 14.9549 24.5167 15.9588C24.9923 16.9631 26.1021 17.8085 26.7889 17.8612ZM27.1587 10.4109C27.9514 11.0977 27.8982 11.6261 27.6343 12.049C27.3699 12.4719 27.0529 12.8416 27.0529 12.8416L26.6831 12.9475L26.2075 12.6304L25.9962 12.9475L26.1021 14.1626C26.1021 14.1626 26.6304 15.3778 27.3704 15.4836C28.1099 15.5894 28.6386 15.5894 28.6386 15.3778C28.6386 15.1661 28.4801 14.7436 28.8499 14.4266C29.2197 14.1095 30.3821 13.5285 30.7523 13.8451C31.1221 14.1622 31.545 15.853 31.1752 16.2227C30.8054 16.5925 30.8581 16.5398 30.5411 16.2227C30.224 15.9057 29.5371 14.4788 29.5371 14.4788C29.5371 14.4788 28.9557 14.4788 28.9557 14.9545C28.9557 15.4301 29.3255 15.694 28.7972 15.9057C28.2689 16.1169 26.7366 15.7998 26.4723 15.5359C26.2079 15.2715 25.8381 14.7432 25.7854 14.2149C25.7327 13.6866 25.5211 13.1583 25.6796 12.8412C25.8381 12.5241 26.0494 11.9427 26.261 12.2071C26.4723 12.471 26.6839 12.8412 26.9479 12.5768C27.2122 12.3129 27.3708 11.89 27.3708 11.89C27.3708 11.89 26.261 11.6788 25.5215 11.0446C25.5206 11.045 26.366 9.72405 27.1587 10.4109ZM28.427 14.5324L27.9514 15.008C27.9514 15.008 27.106 14.8495 26.6304 14.1626C26.1548 13.4758 27.106 13.1587 27.106 13.1587C27.8455 13.5285 28.427 14.5324 28.427 14.5324Z"/>
<path d="M21.716 5.81393C21.1877 5.60269 17.6472 4.59878 16.5379 6.18371C16.5379 6.18371 16.115 6.55348 16.8023 7.45199C16.8023 7.45199 17.3306 6.44808 18.0706 6.34224C18.2053 6.32312 18.3919 6.31462 18.6095 6.31207L18.7047 5.54957L18.8951 6.31207C19.8769 6.32099 21.2591 6.40685 21.7692 6.28954C21.7692 6.28954 21.3994 6.55348 20.0253 6.60661L20.078 7.9803L19.6245 6.61936C19.049 6.63636 18.6001 6.65549 18.1377 6.83443L18.2287 8.56132L17.7832 7.00231C17.4594 7.18465 17.1117 7.45879 16.6964 7.87447C16.6964 7.87447 17.172 9.24816 18.493 9.19546C19.814 9.14276 22.6145 6.92326 23.0374 5.6554C23.037 5.6554 22.2443 6.0256 21.716 5.81393Z"/>
<path d="M18.2319 0.992867C17.6959 1.18455 14.379 2.77841 14.5983 4.70081C14.5983 4.70081 14.5269 5.25803 15.6362 5.47564C15.6362 5.47564 15.3667 4.37354 15.8508 3.80443C15.9388 3.70072 16.0731 3.57066 16.2342 3.42488L15.8007 2.79074L16.4484 3.23574C17.1897 2.59182 18.282 1.74049 18.5863 1.31461C18.5863 1.31461 18.4843 1.75749 17.4902 2.70743L18.4401 3.70157L17.1986 2.98285C16.7791 3.37685 16.4552 3.6884 16.2274 4.12915L17.4396 5.36258L16.0731 4.49C15.9516 4.8415 15.8725 5.27673 15.8368 5.86327C15.8368 5.86327 17.1034 6.57732 18.0576 5.66223C19.0122 4.74757 19.6395 1.22961 19.1159 6.75215e-07C19.1163 -0.000849382 18.7678 0.801179 18.2319 0.992867Z" />


    </g>
  </symbol>
  <symbol id="pinguin-icon"  width="32" height="59" viewBox="0 0 32 59">
    <g>
        
<path fill-rule="evenodd" clip-rule="evenodd" d="M6.99607 33.9609V34.9318L7.45284 35.5337C7.92874 36.1617 7.15471 36.0031 6.33028 36.0259L5.70601 36.0423L5.23338 36.4085C4.39542 37.0561 4.00024 37.3734 4.24192 36.2867L4.36463 35.7306L3.47302 35.7357C2.57114 35.6704 2.69245 35.5225 3.54534 35.1754L4.96417 34.5964L5.1382 33.8872C1.78451 31.4937 1.81764 25.8002 2.78157 22.1773L4.30165 16.4618C2.15637 18.88 2.22029 19.8598 1.22836 22.9266C0.956353 23.7683 0.318087 24.3851 0.127728 23.2028C-0.26279 20.7878 0.250435 17.8106 1.55403 15.8385C3.13662 13.4431 6.23044 9.00418 6.31302 8.00479C6.43386 6.54536 5.91784 5.10787 5.91784 3.39743C5.91784 -1.13248 14.3207 -1.13248 14.3207 3.39743C14.3207 5.10787 13.8047 6.54536 13.9255 8.00479C14.0081 9.00418 17.1019 13.4431 18.6845 15.8385C19.9881 17.8106 20.5013 20.7878 20.1108 23.2028C19.9205 24.3851 19.2822 23.7683 19.0102 22.9266C18.0183 19.8598 18.0822 18.88 15.9369 16.4618L17.457 22.1773C18.4209 25.8002 18.4541 31.4937 15.1004 33.8872L15.2744 34.5964L16.6932 35.1754C17.5461 35.5225 17.6674 35.6704 16.7655 35.7357L15.8739 35.7306L15.9966 36.2867C16.2383 37.3734 15.8431 37.0561 15.0052 36.4085L14.5325 36.0423L13.9083 36.0259C13.0839 36.0031 12.3098 36.1617 12.7857 35.5337L13.2425 34.9318V33.9609H6.99607ZM12.3999 3.02418C12.7167 3.02418 12.9733 3.28079 12.9733 3.59712C12.9733 3.91439 12.7167 4.171 12.3999 4.171C12.0831 4.171 11.8265 3.91439 11.8265 3.59712C11.8265 3.28079 12.0831 3.02418 12.3999 3.02418ZM7.8387 3.02418C8.15503 3.02418 8.41164 3.28079 8.41164 3.59712C8.41164 3.91439 8.15503 4.171 7.8387 4.171C7.52143 4.171 7.26482 3.91439 7.26482 3.59712C7.26482 3.28079 7.52143 3.02418 7.8387 3.02418ZM10.1188 6.59109L11.3809 4.76681L10.9302 4.25172C10.9782 3.29525 12.0705 2.04438 12.9891 2.50349C13.9447 2.98032 14.0198 6.23276 11.4597 7.04039C14.143 9.17354 15.5809 17.5116 15.5809 22.2776C15.5809 27.7737 13.1356 32.2295 10.1193 32.2295C7.10292 32.2295 4.65764 27.7737 4.65764 22.2776C4.65764 17.5176 6.12079 9.19547 8.80496 7.04879C6.13572 6.2309 6.29809 2.7727 7.3432 2.46663C8.24508 2.20208 9.23094 3.35544 9.27759 4.27924L8.85721 4.76681L10.1188 6.59109Z" />

    </g>
  </symbol>
    <symbol id="arrow-icon"  >
    <g transform="translate(5 5)">
      <circle cx="31" cy="31" r="30.5" transform="rotate(90 31 31)" fill="white" />
      <path d="M35.1075 34.9982L35.2094 34.8935L35.1074 34.7889L34.9709 34.6487L34.8635 34.5384L34.756 34.6487L31.2466 38.2516V23V22.85H31.0966H30.9034H30.7534V23V38.2512L27.244 34.6487L27.1365 34.5384L27.0291 34.6487L26.8926 34.7889L26.7906 34.8935L26.8926 34.9982L30.8927 39.1047L31.0002 39.215L31.1076 39.1047L35.1075 34.9982Z" stroke-width="0.3"/>
</svg>

    </g>
  </symbol>

</svg>

