<svg width="50" height="41" viewBox="0 0 50 41" fill="none" xmlns="http://www.w3.org/2000/svg">
<path d="M49.8061 12.0366C49.7286 9.84543 47.2417 7.49752 46.1542 6.2455C45.0667 4.99349 42.8911 4.44586 40.9486 4.44586C39.0061 4.44586 37.9961 6.0894 37.9961 6.0894C37.9961 6.0894 40.7936 5.38502 41.5705 5.61981C42.3474 5.85461 46.2324 8.51537 47.7867 11.4109C49.3405 14.3065 47.6311 16.3409 46.8542 17.8277C46.0774 19.3145 42.8136 19.706 40.0942 19.4713C37.3749 19.2365 35.8986 17.8277 35.2768 16.5757C34.6549 15.3237 34.733 13.0545 34.733 13.0545L27.7399 18.2973C28.3618 19.3926 30.848 20.3317 32.7124 20.4885C34.5774 20.6452 37.0636 21.7405 37.763 22.2101C38.4624 22.6797 37.2968 23.3053 37.2968 23.3053C34.888 21.8966 29.4493 20.2537 28.3612 20.2537C27.2737 20.2537 22.1449 13.993 20.7468 11.9586C19.3481 9.92412 19.9699 8.28058 19.9699 6.87183C19.9699 5.46308 21.9124 1.3942 21.9124 1.3942C21.9124 1.3942 21.5237 -0.56219 18.8824 1.55093C16.7412 3.26372 14.6006 6.98198 13.6175 11.8295C14.6012 10.9036 15.4637 10.0809 15.4637 10.0809L13.44 12.8127C13.3025 13.648 13.1962 14.511 13.1325 15.4017C13.0843 16.0797 13.0631 16.7129 13.0625 17.3103L14.7637 15.9494L13.0693 17.8995C13.125 20.1819 13.5118 21.879 14.0037 23.2556L15.3074 21.1922L14.5125 24.5171C14.9237 25.4348 15.3525 26.2173 15.6956 26.9827C16.3049 28.3411 17.7424 30.0186 19.0262 31.3688L21.0568 29.6428L20.0618 32.427C20.6193 32.9828 21.0724 33.4146 21.2899 33.6343C22.0668 34.4167 20.9793 34.8082 20.9793 34.8082C17.4049 33.4001 12.9762 24.7141 12.9762 24.7141C12.9762 24.7141 9.01372 25.0269 7.14873 22.2101C5.28373 19.3932 6.60498 15.8713 7.61498 13.8369C8.62497 11.8024 7.61498 12.3501 7.61498 12.3501C7.61498 12.3501 5.74998 12.6629 5.20623 12.8977C4.66248 13.1325 1.39875 17.0453 0.932497 17.5149C0.466248 17.9845 0.388749 18.7669 0.388749 18.7669L1.70937 17.5929C1.70937 17.5929 1.32062 18.7669 0.776872 19.7841C0.233124 20.8013 0 22.8358 0 22.8358L1.16562 21.1922V26.2003C0.776872 28.5482 1.16562 29.3306 1.16562 29.3306L1.94249 25.8874C1.94249 25.8874 1.94249 28.5482 1.94249 29.4087C1.94249 30.2691 3.96249 34.2606 5.90498 37.5471C7.84747 40.8335 20.5124 41.225 23.1543 40.9122C25.7649 40.6031 33.7605 35.862 37.848 32.1248L34.1105 32.6951L39.3955 30.5002C40.1086 29.6485 40.7792 28.7081 41.393 27.7544L38.3836 29.0171C38.4936 28.9435 40.1692 27.9508 41.913 26.921C43.8774 23.6862 45.143 20.5659 45.143 20.5659C45.143 20.5659 48.0955 18.9224 49.2611 17.2008C50.4273 15.4798 49.8836 14.2278 49.8061 12.0366Z" fill="black"/>
<path d="M39.3947 9.06292C39.7809 9.06292 40.0941 8.74756 40.0941 8.35855C40.0941 7.96953 39.7809 7.65417 39.3947 7.65417C39.0084 7.65417 38.6953 7.96953 38.6953 8.35855C38.6953 8.74756 39.0084 9.06292 39.3947 9.06292Z" fill="black"/>
<path d="M44.8335 14.5407C45.2626 14.5407 45.6104 14.1904 45.6104 13.7583C45.6104 13.3261 45.2626 12.9758 44.8335 12.9758C44.4045 12.9758 44.0566 13.3261 44.0566 13.7583C44.0566 14.1904 44.4045 14.5407 44.8335 14.5407Z" fill="black"/>
<path d="M39.3952 18.4534C40.4052 18.5314 44.2127 18.3753 45.3002 17.827C46.3877 17.2794 47.7864 15.6359 47.4758 14.1491C47.1652 12.6623 46.3102 9.53192 44.3677 8.27991C42.4252 7.02789 40.9489 6.40157 40.1721 6.40157C39.3952 6.40157 38.074 6.32352 37.4527 7.10595C37.4527 7.10595 36.5977 7.65359 36.2096 10.0015C35.8208 12.3494 35.3546 14.1491 36.054 15.6359C36.7533 17.1233 38.3852 18.3753 39.3952 18.4534ZM39.939 7.41942C41.1046 8.43664 41.0264 9.21907 40.6383 9.84539C40.2496 10.4717 39.7833 11.0193 39.7833 11.0193L39.2396 11.1761L38.5402 10.7065L38.2296 11.1761L38.3852 12.9757C38.3852 12.9757 39.1621 14.7754 40.2502 14.9321C41.3377 15.0889 42.1152 15.0889 42.1152 14.7754C42.1152 14.4619 41.8821 13.8362 42.4258 13.3666C42.9696 12.8971 44.6789 12.0366 45.2233 12.5055C45.7671 12.9751 46.3889 15.4791 45.8452 16.0268C45.3014 16.5744 45.3789 16.4964 44.9127 16.0268C44.4464 15.5572 43.4364 13.4441 43.4364 13.4441C43.4364 13.4441 42.5814 13.4441 42.5814 14.1484C42.5814 14.8528 43.1252 15.2437 42.3483 15.5572C41.5714 15.87 39.3183 15.4004 38.9296 15.0095C38.5408 14.618 37.9971 13.8356 37.9196 13.0532C37.8421 12.2707 37.5308 11.4883 37.764 11.0187C37.9971 10.5491 38.3077 9.68802 38.619 10.0796C38.9296 10.4705 39.2408 11.0187 39.629 10.6272C40.0177 10.2363 40.2508 9.60997 40.2508 9.60997C40.2508 9.60997 38.619 9.29713 37.5315 8.35796C37.5302 8.35859 38.7733 6.4022 39.939 7.41942ZM41.8039 13.5234L41.1046 14.2277C41.1046 14.2277 39.8614 13.993 39.1621 12.9757C38.4627 11.9585 39.8615 11.4889 39.8615 11.4889C40.9489 12.0366 41.8039 13.5234 41.8039 13.5234Z" fill="black"/>
</svg>
